<mxfile host="app.diagrams.net" agent="Mozilla/5.0 (Windows NT 10.0; Win64; x64; rv:128.0) Gecko/20100101 Firefox/128.0" version="24.7.6">
  <diagram id="C5RBs43oDa-KdzZeNtuy" name="Page-1">
    <mxGraphModel dx="1760" dy="1923" grid="1" gridSize="10" guides="1" tooltips="1" connect="1" arrows="1" fold="1" page="1" pageScale="1" pageWidth="827" pageHeight="1169" math="0" shadow="0">
      <root>
        <mxCell id="WIyWlLk6GJQsqaUBKTNV-0" />
        <mxCell id="WIyWlLk6GJQsqaUBKTNV-1" parent="WIyWlLk6GJQsqaUBKTNV-0" />
        <mxCell id="ysdXUDdb06Au62gTsJQ1-11" value="" style="edgeStyle=orthogonalEdgeStyle;rounded=0;orthogonalLoop=1;jettySize=auto;html=1;" edge="1" parent="WIyWlLk6GJQsqaUBKTNV-1" source="ysdXUDdb06Au62gTsJQ1-0" target="ysdXUDdb06Au62gTsJQ1-10">
          <mxGeometry relative="1" as="geometry" />
        </mxCell>
        <mxCell id="ysdXUDdb06Au62gTsJQ1-0" value="okButton" style="strokeWidth=2;html=1;shape=mxgraph.flowchart.terminator;whiteSpace=wrap;" vertex="1" parent="WIyWlLk6GJQsqaUBKTNV-1">
          <mxGeometry x="40" y="40" width="100" height="60" as="geometry" />
        </mxCell>
        <mxCell id="ysdXUDdb06Au62gTsJQ1-13" value="" style="edgeStyle=orthogonalEdgeStyle;rounded=0;orthogonalLoop=1;jettySize=auto;html=1;" edge="1" parent="WIyWlLk6GJQsqaUBKTNV-1" source="ysdXUDdb06Au62gTsJQ1-10" target="ysdXUDdb06Au62gTsJQ1-12">
          <mxGeometry relative="1" as="geometry" />
        </mxCell>
        <mxCell id="ysdXUDdb06Au62gTsJQ1-10" value="display message box asking user for if they want to purchase omre" style="shape=parallelogram;perimeter=parallelogramPerimeter;whiteSpace=wrap;html=1;fixedSize=1;strokeWidth=2;" vertex="1" parent="WIyWlLk6GJQsqaUBKTNV-1">
          <mxGeometry x="20" y="170" width="140" height="60" as="geometry" />
        </mxCell>
        <mxCell id="ysdXUDdb06Au62gTsJQ1-15" value="yes" style="edgeStyle=orthogonalEdgeStyle;rounded=0;orthogonalLoop=1;jettySize=auto;html=1;" edge="1" parent="WIyWlLk6GJQsqaUBKTNV-1" source="ysdXUDdb06Au62gTsJQ1-12" target="ysdXUDdb06Au62gTsJQ1-14">
          <mxGeometry relative="1" as="geometry" />
        </mxCell>
        <mxCell id="ysdXUDdb06Au62gTsJQ1-21" value="" style="edgeStyle=orthogonalEdgeStyle;rounded=0;orthogonalLoop=1;jettySize=auto;html=1;" edge="1" parent="WIyWlLk6GJQsqaUBKTNV-1" source="ysdXUDdb06Au62gTsJQ1-12" target="ysdXUDdb06Au62gTsJQ1-20">
          <mxGeometry relative="1" as="geometry" />
        </mxCell>
        <mxCell id="ysdXUDdb06Au62gTsJQ1-12" value="is ok option selected" style="rhombus;whiteSpace=wrap;html=1;strokeWidth=2;" vertex="1" parent="WIyWlLk6GJQsqaUBKTNV-1">
          <mxGeometry x="50" y="300" width="80" height="80" as="geometry" />
        </mxCell>
        <mxCell id="ysdXUDdb06Au62gTsJQ1-17" value="" style="edgeStyle=orthogonalEdgeStyle;rounded=0;orthogonalLoop=1;jettySize=auto;html=1;" edge="1" parent="WIyWlLk6GJQsqaUBKTNV-1" source="ysdXUDdb06Au62gTsJQ1-14" target="ysdXUDdb06Au62gTsJQ1-16">
          <mxGeometry relative="1" as="geometry" />
        </mxCell>
        <mxCell id="ysdXUDdb06Au62gTsJQ1-14" value="remove billFrame" style="shape=parallelogram;perimeter=parallelogramPerimeter;whiteSpace=wrap;html=1;fixedSize=1;strokeWidth=2;" vertex="1" parent="WIyWlLk6GJQsqaUBKTNV-1">
          <mxGeometry x="190" y="310" width="120" height="60" as="geometry" />
        </mxCell>
        <mxCell id="ysdXUDdb06Au62gTsJQ1-19" value="" style="edgeStyle=orthogonalEdgeStyle;rounded=0;orthogonalLoop=1;jettySize=auto;html=1;" edge="1" parent="WIyWlLk6GJQsqaUBKTNV-1" source="ysdXUDdb06Au62gTsJQ1-16" target="ysdXUDdb06Au62gTsJQ1-18">
          <mxGeometry relative="1" as="geometry" />
        </mxCell>
        <mxCell id="ysdXUDdb06Au62gTsJQ1-16" value="display thank you frame" style="shape=parallelogram;perimeter=parallelogramPerimeter;whiteSpace=wrap;html=1;fixedSize=1;strokeWidth=2;" vertex="1" parent="WIyWlLk6GJQsqaUBKTNV-1">
          <mxGeometry x="330" y="310" width="120" height="60" as="geometry" />
        </mxCell>
        <mxCell id="ysdXUDdb06Au62gTsJQ1-18" value="end" style="strokeWidth=2;html=1;shape=mxgraph.flowchart.terminator;whiteSpace=wrap;" vertex="1" parent="WIyWlLk6GJQsqaUBKTNV-1">
          <mxGeometry x="460" y="310" width="100" height="60" as="geometry" />
        </mxCell>
        <mxCell id="ysdXUDdb06Au62gTsJQ1-23" value="" style="edgeStyle=orthogonalEdgeStyle;rounded=0;orthogonalLoop=1;jettySize=auto;html=1;" edge="1" parent="WIyWlLk6GJQsqaUBKTNV-1" source="ysdXUDdb06Au62gTsJQ1-20" target="ysdXUDdb06Au62gTsJQ1-22">
          <mxGeometry relative="1" as="geometry" />
        </mxCell>
        <mxCell id="ysdXUDdb06Au62gTsJQ1-20" value="set cat and item to 0" style="whiteSpace=wrap;html=1;strokeWidth=2;" vertex="1" parent="WIyWlLk6GJQsqaUBKTNV-1">
          <mxGeometry x="30" y="470" width="120" height="60" as="geometry" />
        </mxCell>
        <mxCell id="ysdXUDdb06Au62gTsJQ1-25" value="yes" style="edgeStyle=orthogonalEdgeStyle;rounded=0;orthogonalLoop=1;jettySize=auto;html=1;" edge="1" parent="WIyWlLk6GJQsqaUBKTNV-1" source="ysdXUDdb06Au62gTsJQ1-22" target="ysdXUDdb06Au62gTsJQ1-24">
          <mxGeometry relative="1" as="geometry" />
        </mxCell>
        <mxCell id="ysdXUDdb06Au62gTsJQ1-36" value="" style="edgeStyle=orthogonalEdgeStyle;rounded=0;orthogonalLoop=1;jettySize=auto;html=1;" edge="1" parent="WIyWlLk6GJQsqaUBKTNV-1" source="ysdXUDdb06Au62gTsJQ1-22" target="ysdXUDdb06Au62gTsJQ1-35">
          <mxGeometry relative="1" as="geometry" />
        </mxCell>
        <mxCell id="ysdXUDdb06Au62gTsJQ1-22" value="is cat in cart" style="rhombus;whiteSpace=wrap;html=1;strokeWidth=2;" vertex="1" parent="WIyWlLk6GJQsqaUBKTNV-1">
          <mxGeometry x="50" y="600" width="80" height="80" as="geometry" />
        </mxCell>
        <mxCell id="ysdXUDdb06Au62gTsJQ1-28" value="no" style="edgeStyle=orthogonalEdgeStyle;rounded=0;orthogonalLoop=1;jettySize=auto;html=1;" edge="1" parent="WIyWlLk6GJQsqaUBKTNV-1" source="ysdXUDdb06Au62gTsJQ1-24" target="ysdXUDdb06Au62gTsJQ1-27">
          <mxGeometry relative="1" as="geometry">
            <Array as="points">
              <mxPoint x="180" y="800" />
            </Array>
          </mxGeometry>
        </mxCell>
        <mxCell id="ysdXUDdb06Au62gTsJQ1-31" value="yes" style="edgeStyle=orthogonalEdgeStyle;rounded=0;orthogonalLoop=1;jettySize=auto;html=1;" edge="1" parent="WIyWlLk6GJQsqaUBKTNV-1" source="ysdXUDdb06Au62gTsJQ1-24" target="ysdXUDdb06Au62gTsJQ1-30">
          <mxGeometry relative="1" as="geometry" />
        </mxCell>
        <mxCell id="ysdXUDdb06Au62gTsJQ1-24" value="is item in cat" style="rhombus;whiteSpace=wrap;html=1;strokeWidth=2;" vertex="1" parent="WIyWlLk6GJQsqaUBKTNV-1">
          <mxGeometry x="50" y="760" width="80" height="80" as="geometry" />
        </mxCell>
        <mxCell id="ysdXUDdb06Au62gTsJQ1-29" style="edgeStyle=orthogonalEdgeStyle;rounded=0;orthogonalLoop=1;jettySize=auto;html=1;entryX=1;entryY=0.5;entryDx=0;entryDy=0;" edge="1" parent="WIyWlLk6GJQsqaUBKTNV-1" source="ysdXUDdb06Au62gTsJQ1-27" target="ysdXUDdb06Au62gTsJQ1-22">
          <mxGeometry relative="1" as="geometry" />
        </mxCell>
        <mxCell id="ysdXUDdb06Au62gTsJQ1-27" value="increment cat" style="whiteSpace=wrap;html=1;strokeWidth=2;" vertex="1" parent="WIyWlLk6GJQsqaUBKTNV-1">
          <mxGeometry x="120" y="690" width="120" height="60" as="geometry" />
        </mxCell>
        <mxCell id="ysdXUDdb06Au62gTsJQ1-33" value="" style="edgeStyle=orthogonalEdgeStyle;rounded=0;orthogonalLoop=1;jettySize=auto;html=1;" edge="1" parent="WIyWlLk6GJQsqaUBKTNV-1" source="ysdXUDdb06Au62gTsJQ1-30" target="ysdXUDdb06Au62gTsJQ1-32">
          <mxGeometry relative="1" as="geometry" />
        </mxCell>
        <mxCell id="ysdXUDdb06Au62gTsJQ1-30" value="set value of item to 0" style="whiteSpace=wrap;html=1;strokeWidth=2;" vertex="1" parent="WIyWlLk6GJQsqaUBKTNV-1">
          <mxGeometry x="30" y="930" width="120" height="60" as="geometry" />
        </mxCell>
        <mxCell id="ysdXUDdb06Au62gTsJQ1-34" style="edgeStyle=orthogonalEdgeStyle;rounded=0;orthogonalLoop=1;jettySize=auto;html=1;" edge="1" parent="WIyWlLk6GJQsqaUBKTNV-1" source="ysdXUDdb06Au62gTsJQ1-32">
          <mxGeometry relative="1" as="geometry">
            <mxPoint x="180" y="640" as="targetPoint" />
            <Array as="points">
              <mxPoint x="280" y="1100" />
              <mxPoint x="280" y="640" />
            </Array>
          </mxGeometry>
        </mxCell>
        <mxCell id="ysdXUDdb06Au62gTsJQ1-32" value="&lt;div&gt;remove_cart_label()&lt;/div&gt;&lt;div&gt;pass item, and is_cart_byutton = False&lt;br&gt;&lt;/div&gt;" style="shape=process;whiteSpace=wrap;html=1;backgroundOutline=1;strokeWidth=2;" vertex="1" parent="WIyWlLk6GJQsqaUBKTNV-1">
          <mxGeometry x="10" y="1070" width="160" height="60" as="geometry" />
        </mxCell>
        <mxCell id="ysdXUDdb06Au62gTsJQ1-38" value="" style="edgeStyle=orthogonalEdgeStyle;rounded=0;orthogonalLoop=1;jettySize=auto;html=1;" edge="1" parent="WIyWlLk6GJQsqaUBKTNV-1" source="ysdXUDdb06Au62gTsJQ1-35" target="ysdXUDdb06Au62gTsJQ1-37">
          <mxGeometry relative="1" as="geometry" />
        </mxCell>
        <mxCell id="ysdXUDdb06Au62gTsJQ1-35" value="forget billframe" style="shape=parallelogram;perimeter=parallelogramPerimeter;whiteSpace=wrap;html=1;fixedSize=1;strokeWidth=2;" vertex="1" parent="WIyWlLk6GJQsqaUBKTNV-1">
          <mxGeometry x="-130" y="610" width="120" height="60" as="geometry" />
        </mxCell>
        <mxCell id="ysdXUDdb06Au62gTsJQ1-40" value="" style="edgeStyle=orthogonalEdgeStyle;rounded=0;orthogonalLoop=1;jettySize=auto;html=1;" edge="1" parent="WIyWlLk6GJQsqaUBKTNV-1" source="ysdXUDdb06Au62gTsJQ1-37" target="ysdXUDdb06Au62gTsJQ1-39">
          <mxGeometry relative="1" as="geometry" />
        </mxCell>
        <mxCell id="ysdXUDdb06Au62gTsJQ1-37" value="forget paymen frame" style="shape=parallelogram;perimeter=parallelogramPerimeter;whiteSpace=wrap;html=1;fixedSize=1;strokeWidth=2;" vertex="1" parent="WIyWlLk6GJQsqaUBKTNV-1">
          <mxGeometry x="-150" y="750" width="160" height="60" as="geometry" />
        </mxCell>
        <mxCell id="ysdXUDdb06Au62gTsJQ1-42" value="" style="edgeStyle=orthogonalEdgeStyle;rounded=0;orthogonalLoop=1;jettySize=auto;html=1;" edge="1" parent="WIyWlLk6GJQsqaUBKTNV-1" source="ysdXUDdb06Au62gTsJQ1-39" target="ysdXUDdb06Au62gTsJQ1-41">
          <mxGeometry relative="1" as="geometry" />
        </mxCell>
        <mxCell id="ysdXUDdb06Au62gTsJQ1-39" value="place masterFrame" style="shape=parallelogram;perimeter=parallelogramPerimeter;whiteSpace=wrap;html=1;fixedSize=1;strokeWidth=2;" vertex="1" parent="WIyWlLk6GJQsqaUBKTNV-1">
          <mxGeometry x="-140" y="890" width="140" height="60" as="geometry" />
        </mxCell>
        <mxCell id="ysdXUDdb06Au62gTsJQ1-43" style="edgeStyle=orthogonalEdgeStyle;rounded=0;orthogonalLoop=1;jettySize=auto;html=1;" edge="1" parent="WIyWlLk6GJQsqaUBKTNV-1">
          <mxGeometry relative="1" as="geometry">
            <mxPoint x="509.99999999999994" y="370" as="targetPoint" />
            <mxPoint x="-80.00000000000003" y="1090" as="sourcePoint" />
            <Array as="points">
              <mxPoint x="-80.03999999999999" y="1150" />
              <mxPoint x="509.96" y="1150" />
            </Array>
          </mxGeometry>
        </mxCell>
        <mxCell id="ysdXUDdb06Au62gTsJQ1-41" value="set tab to shopping" style="shape=parallelogram;perimeter=parallelogramPerimeter;whiteSpace=wrap;html=1;fixedSize=1;strokeWidth=2;" vertex="1" parent="WIyWlLk6GJQsqaUBKTNV-1">
          <mxGeometry x="-140" y="1030" width="140" height="60" as="geometry" />
        </mxCell>
      </root>
    </mxGraphModel>
  </diagram>
</mxfile>
